<svg id="Icons" xmlns="http://www.w3.org/2000/svg" viewBox="0 0 66 66"><defs><style>.cls-1{fill:#416894;}.cls-2{fill:#4c7aae;}.cls-3{opacity:0.15;}.cls-4{fill:#fffcf2;}</style></defs><title>cloud</title><g id="Cloud"><g id="Circle_Shadow" data-name="Circle Shadow"><circle class="cls-1" cx="33" cy="34" r="31"/></g><g id="Circle"><circle class="cls-2" cx="33" cy="32" r="31"/></g><path id="Long_Shadow" data-name="Long Shadow" class="cls-3" d="M37.89,62.61A31,31,0,0,0,62.17,42.5L43.83,24.16,42.3,25.21l0,0L37,19.86l1.6,7.92-21,14.54Z"/><g id="Cloud-2" data-name="Cloud"><path class="cls-4" d="M44.95,27.5A4,4,0,0,0,45,27a4,4,0,0,0-5.68-3.62A10,10,0,0,0,20,27c0,.31,0,.62,0,.92A9,9,0,0,0,24,45H42a9,9,0,0,0,2.95-17.5Z"/></g></g></svg>